<?xml version="1.0" encoding="UTF-8" standalone="no"?>
<!-- Created with Inkscape (http://www.inkscape.org/) -->

<svg
   width="210mm"
   height="297mm"
   viewBox="0 0 210 297"
   version="1.1"
   id="svg5"
   inkscape:version="1.1 (c68e22c387, 2021-05-23)"
   sodipodi:docname="circle.svg"
   xmlns:inkscape="http://www.inkscape.org/namespaces/inkscape"
   xmlns:sodipodi="http://sodipodi.sourceforge.net/DTD/sodipodi-0.dtd"
   xmlns:xlink="http://www.w3.org/1999/xlink"
   xmlns="http://www.w3.org/2000/svg"
   xmlns:svg="http://www.w3.org/2000/svg">
  <sodipodi:namedview
     id="namedview7"
     pagecolor="#ffffff"
     bordercolor="#666666"
     borderopacity="1.0"
     inkscape:pageshadow="2"
     inkscape:pageopacity="0.0"
     inkscape:pagecheckerboard="0"
     inkscape:document-units="mm"
     showgrid="false"
     inkscape:zoom="0.77771465"
     inkscape:cx="143.36878"
     inkscape:cy="651.26715"
     inkscape:window-width="2560"
     inkscape:window-height="1418"
     inkscape:window-x="0"
     inkscape:window-y="0"
     inkscape:window-maximized="1"
     inkscape:current-layer="layer1" />
  <defs
     id="defs2">
    <linearGradient
       inkscape:collect="always"
       id="linearGradient4115">
      <stop
         style="stop-color:#ff6600;stop-opacity:1;"
         offset="0"
         id="stop4111" />
      <stop
         style="stop-color:#ff6600;stop-opacity:0;"
         offset="1"
         id="stop4113" />
    </linearGradient>
    <inkscape:path-effect
       effect="skeletal"
       id="path-effect1375"
       is_visible="true"
       lpeversion="1"
       pattern="m 234.96674,-406.7511 a -3.9004563,-3.9004563 0 0 0 3.90046,3.90045 -3.9004563,-3.9004563 0 0 0 3.90045,-3.90045 -3.9004563,-3.9004563 0 0 0 -3.90045,-3.90047 -3.9004563,-3.9004563 0 0 0 -3.90046,3.90047 z"
       copytype="repeated"
       prop_scale="-1"
       scale_y_rel="false"
       spacing="3.1"
       normal_offset="-2.2"
       tang_offset="0"
       prop_units="false"
       vertical_pattern="false"
       hide_knot="false"
       fuse_tolerance="0" />
    <inkscape:path-effect
       effect="copy_rotate"
       starting_point="0,0"
       origin="101.83,187.78"
       id="path-effect1373"
       is_visible="true"
       lpeversion="1"
       method="kaleidoskope"
       num_copies="22"
       starting_angle="-0.2"
       rotation_angle="60"
       gap="1.81"
       copies_to_360="true"
       mirror_copies="true"
       split_items="false" />
    <linearGradient
       inkscape:collect="always"
       xlink:href="#linearGradient4115"
       id="linearGradient4117"
       x1="-42.306973"
       y1="-73.651581"
       x2="-95.666962"
       y2="-148.53062"
       gradientUnits="userSpaceOnUse" />
  </defs>
  <g
     inkscape:label="Layer 1"
     inkscape:groupmode="layer"
     id="layer1">
    <ellipse
       style="fill:none;stroke-width:0.264583;fill-opacity:1"
       id="path1019"
       ry="14.1412"
       rx="15.743942"
       cy="167.5764"
       cx="103.12331" />
    <path
       style="fill:none;fill-opacity:1;stroke:none;stroke-opacity:1"
       id="path1095"
       sodipodi:type="arc"
       sodipodi:cx="152.26669"
       sodipodi:cy="173.45087"
       sodipodi:rx="33.241741"
       sodipodi:ry="40.109177"
       sodipodi:start="0"
       sodipodi:end="0.62993471"
       sodipodi:open="true"
       sodipodi:arc-type="arc"
       d="m 185.50843,173.45087 a 33.241741,40.109177 0 0 1 -6.38022,23.62799" />
    <path
       style="fill:url(#linearGradient4117);fill-opacity:1;stroke:none;stroke-width:1;stroke-miterlimit:4;stroke-dasharray:none;stroke-opacity:1"
       id="path1291"
       inkscape:path-effect="#path-effect1375"
       sodipodi:type="arc"
       sodipodi:cx="-104.79127"
       sodipodi:cy="-149.13403"
       sodipodi:rx="100.64"
       sodipodi:ry="100.64011"
       d="m -6.351258,-149.13403 c 2.156661,0 3.9077377,1.74171 3.8051247,3.96663 -0.1025608,2.22376 -1.9995965,3.79 -4.126218,3.60123 -2.1268275,-0.18879 -3.7119097,-1.99048 -3.6361107,-3.94758 0.07576,-1.95593 1.8007254,-3.62029 3.957204,-3.62028 z m -0.6338385,10.55151 c 2.1194908,0.26197 3.633518,2.1883 3.2679023,4.36699 -0.3654291,2.17756 -2.4221298,3.50256 -4.5034195,3.064 -2.0816033,-0.43862 -3.4276143,-2.40931 -3.1097683,-4.33706 0.31766,-1.9266 2.2260936,-3.35587 4.3452855,-3.09393 z m -1.8995621,10.34817 c 2.0662321,0.50683 3.341802,2.59118 2.7306799,4.70653 -0.6108369,2.11435 -2.8013124,3.19856 -4.8198093,2.52678 -2.018838,-0.67189 -3.127275,-2.78389 -2.583426,-4.66572 0.543558,-1.88082 2.606657,-3.07435 4.6725554,-2.56759 z m -3.0803084,10.05985 c 1.9968038,0.73482 3.0326696,2.95013 2.1934571,4.98526 -0.8388811,2.03432 -3.1370471,2.87781 -5.0753891,1.98956 -1.938651,-0.88838 -2.81077,-3.11445 -2.057083,-4.93357 0.753349,-1.81831 2.942517,-2.77596 4.939015,-2.04125 z m -4.176079,9.68656 c 1.911071,0.94607 2.706258,3.26499 1.656235,5.20318 -1.049702,1.93759 -3.429194,2.54016 -5.270157,1.45234 -1.841206,-1.08796 -2.477939,-3.40111 -1.53074,-5.14062 0.946872,-1.73891 3.233832,-2.46086 5.144662,-1.5149 z m -5.186871,9.22828 c 1.808879,1.14069 2.362718,3.535693 1.119012,5.360291 -1.243453,1.824222 -3.677602,2.185564 -5.404114,0.915118 -1.726673,-1.27056 -2.128609,-3.643925 -1.004396,-5.28685 1.123955,-1.642545 3.480775,-2.129159 5.289498,-0.988559 z m -6.112688,8.685036 c 1.690079,1.318679 2.002203,3.762202 0.581789,5.456587 -1.420274,1.694217 -3.882125,1.814021 -5.477259,0.377896 -1.59521,-1.436189 -1.762625,-3.842906 -0.478052,-5.372269 1.284434,-1.529196 3.683512,-1.780844 5.373522,-0.462214 z m -6.953527,8.056809 c 1.554541,1.48001 1.624841,3.944557 0.04457,5.492073 -1.580291,1.547529 -4.042645,1.425575 -5.489594,-0.159326 -1.446949,-1.584896 -1.379853,-3.997999 0.04829,-5.396878 1.428168,-1.398899 3.842184,-1.415896 5.396736,0.06413 z m -7.70939,7.343605 c 1.40216,1.624614 1.230736,4.08283 -0.492656,5.466747 -1.723596,1.38408 -4.159062,1.020306 -5.441116,-0.696548 -1.281994,-1.716766 -0.980191,-4.109116 0.574635,-5.360675 1.555043,-1.251731 3.956901,-1.034234 5.359137,0.590476 z m -8.380275,6.545423 c 1.232862,1.752389 0.819962,4.177121 -1.029879,5.380611 -1.850255,1.203758 -4.231316,0.598324 -5.331828,-1.23377 -1.100412,-1.831919 -0.563569,-4.17614 1.10098,-5.263661 1.664982,-1.087802 4.027743,-0.635748 5.260727,1.11682 z m -8.966184,5.662266 c 1.046613,1.863204 0.392555,4.227558 -1.567102,5.233663 -1.96029,1.006428 -4.259383,0.159764 -5.161729,-1.770993 -0.902231,-1.930501 -0.129961,-4.198924 1.627325,-5.105836 1.757944,-0.907249 4.054752,-0.220299 5.101506,1.643166 z m -9.467116,4.694129 c 0.843424,1.956918 -0.0515,4.234288 -2.104325,5.025904 -2.05367,0.79194 -4.243294,-0.295221 -4.930819,-2.308216 -0.687422,-2.012678 0.320605,-4.177299 2.15367,-4.887198 1.833939,-0.710235 4.037916,0.212273 4.881474,2.16951 z m -9.883071,3.641017 c 0.623366,2.033376 -0.512268,4.197461 -2.641549,4.757334 -2.130299,0.560139 -4.183143,-0.766481 -4.639097,-2.845439 -0.455885,-2.078627 0.788029,-4.111095 2.680016,-4.60775 1.893039,-0.49693 3.977163,0.662139 4.60063,2.695855 z m -10.21405,2.502927 c 0.386583,2.092445 -0.989896,4.117212 -3.178772,4.427952 -2.190005,0.310898 -4.079105,-1.253885 -4.286564,-3.382662 -0.207436,-2.128496 1.272126,-4.000158 3.206362,-4.267491 1.935398,-0.267491 3.87234,1.129458 4.258974,3.222201 z m -10.460051,1.279859 c 0.13329,2.134042 -1.484601,3.993623 -3.715991,4.037759 -0.55102,0.0109 -1.09763,-0.09594 -1.60101,-0.313373 0,0 0,0 0,0 -1.44831,-0.630053 -2.30801,-2.051807 -2.26681,-3.594552 0.041,-1.53762 0.95693,-2.917859 2.26681,-3.544896 0,0 0,0 0,0 0.46224,-0.214757 0.95823,-0.327843 1.46049,-0.333484 1.96126,-0.02202 3.723214,1.614333 3.856511,3.748546 z m -10.591721,0.0026 c -0.13262,2.140159 -1.96956,3.773365 -4.17361,3.537588 -2.2029,-0.235655 -3.64891,-2.215433 -3.33369,-4.321665 0.31525,-2.106502 2.20461,-3.572331 4.14914,-3.373991 1.94336,0.198221 3.49077,2.01816 3.35816,4.158068 z m -10.46087,-1.27479 c -0.38603,2.094982 -2.39441,3.490426 -4.54368,3.000364 -2.1482,-0.489821 -3.35325,-2.616386 -2.79646,-4.668582 0.55687,-2.052532 2.60137,-3.280055 4.50833,-2.847648 1.90587,0.432163 3.2178,2.42121 2.83181,4.515866 z m -10.2152,-2.498197 c -0.62247,2.033684 -2.77544,3.190021 -4.85294,2.463139 -2.07659,-0.726566 -3.04093,-2.973948 -2.25924,-4.954688 0.78181,-1.981072 2.954,-2.971683 4.80671,-2.321304 1.85179,0.650057 2.92784,2.779494 2.30547,4.812853 z m -9.88457,-3.636628 c -0.84211,1.956155 -3.11245,2.872263 -5.10138,1.925916 -1.98823,-0.946015 -2.71177,-3.287996 -1.72202,-5.179984 0.98989,-1.892269 3.26268,-2.647069 5.04428,-1.79496 1.78088,0.851769 2.62112,3.093149 1.77912,5.049028 z m -9.46895,-4.690082 c -1.04507,1.862245 -3.40533,2.537303 -5.28902,1.388693 -1.88321,-1.148316 -2.36569,-3.558379 -1.1848,-5.344468 1.18102,-1.786293 3.52751,-2.306042 5.22104,-1.268615 1.69304,1.037126 2.29775,3.362346 1.25278,5.22439 z m -8.96836,-5.658557 c -1.23141,1.7518 -3.65402,2.185291 -5.41585,0.851469 -1.76155,-1.333619 -2.00264,-3.784949 -0.64757,-5.448141 1.35516,-1.663311 3.7485,-1.948435 5.33699,-0.742271 1.58822,1.20596 1.95777,3.587256 0.72643,5.338943 z m -8.38279,-6.542056 c -1.40111,1.624679 -3.85853,1.816371 -5.48186,0.314246 -1.62325,-1.502058 -1.62268,-3.967573 -0.11035,-5.491003 1.51235,-1.523467 3.92563,-1.574105 5.39212,-0.215927 1.46642,1.358116 1.60118,3.768033 0.20009,5.392684 z m -7.71225,-7.340577 c -1.55412,1.480763 -4.01892,1.430659 -5.48706,-0.222977 -1.46823,-1.653743 -1.22584,-4.10614 0.42687,-5.473054 1.65267,-1.366881 4.05884,-1.182933 5.38645,0.310418 1.32771,1.493466 1.22792,3.904803 -0.32626,5.385613 z m -6.95672,-8.054122 c -1.69036,1.319965 -4.13528,1.028246 -5.43145,-0.7602 -1.2964,-1.788752 -0.81224,-4.200569 0.96409,-5.394292 1.77619,-1.19364 4.14801,-0.774832 5.31996,0.836761 1.17218,1.611915 0.8379,3.997663 -0.8526,5.317731 z m -6.11622,-8.682689 c -1.80971,1.142228 -4.20772,0.609187 -5.31504,-1.297426 -1.10762,-1.90713 -0.38198,-4.25081 1.50132,-5.25472 1.88307,-1.00379 4.19302,-0.34975 5.19266,1.36311 0.99995,1.7134 0.43098,4.04667 -1.37894,5.189036 z m -5.19075,-9.226276 c -1.91203,0.94754 -4.23637,0.17349 -5.1378,-1.83465 -0.90177,-2.00888 0.0648,-4.25688 2.03853,-5.05433 1.97347,-0.79734 4.19372,0.0923 5.00456,1.88945 0.81118,1.7979 0.007,4.05185 -1.90529,4.99953 z m -4.1803,-9.68489 c -1.99716,0.73593 -4.22138,-0.27887 -4.89976,-2.37187 -0.67867,-2.09393 0.52789,-4.21884 2.57576,-4.79314 2.04754,-0.57422 4.14991,0.55128 4.75563,2.41579 0.60604,1.86548 -0.43413,4.01316 -2.43163,4.74922 z m -3.08487,-10.05853 c -2.06497,0.50753 -4.16292,-0.74801 -4.6009,-2.90909 -0.4382,-2.16216 1.0072,-4.1368 3.11298,-4.47114 2.10546,-0.33428 4.06144,1.02705 4.4459,2.94214 0.38468,1.91622 -0.89268,3.93049 -2.95798,4.43809 z m -1.90446,-10.34718 c -2.11534,0.26249 -4.06108,-1.23411 -4.24124,-3.44631 -0.18025,-2.21336 1.50262,-4.011 3.6502,-4.08832 2.14736,-0.0773 3.9282,1.51934 4.07536,3.46848 0.14725,1.95032 -1.36872,3.80363 -3.48432,4.06615 z m -0.63908,-10.55087 c -0.19479,1e-4 -0.38928,-0.014 -0.58186,-0.0426 -1.91215,-0.28308 -3.31573,-1.93802 -3.22519,-3.92236 0.10147,-2.2239 1.99781,-3.79111 4.12458,-3.60337 2.12698,0.18775 3.71302,1.98871 3.63822,3.94589 -0.0673,1.76058 -1.4671,3.30123 -3.37367,3.57984 -0.19271,0.0281 -0.38728,0.0425 -0.58208,0.0426 z m 0.62882,-10.55215 c -2.11967,-0.26096 -3.63465,-2.1866 -3.27005,-4.36551 0.36441,-2.17778 2.42052,-3.50374 4.50203,-3.06615 2.08182,0.43765 3.42878,2.40772 3.11187,4.33561 -0.31672,1.92676 -2.22448,3.35698 -4.34385,3.09605 z m 1.89466,-10.34915 c -2.06647,-0.50589 -3.343,-2.58966 -2.73283,-4.7053 0.60989,-2.11464 2.79988,-3.19981 4.81867,-2.52893 2.01912,0.67099 3.12851,2.78248 2.58553,4.66453 -0.54269,1.88103 -2.60522,3.07551 -4.67137,2.5697 z m 3.07575,-10.06118 c -1.99711,-0.73394 -3.03394,-2.94879 -2.19561,-4.98427 0.83801,-2.03467 3.13579,-2.87912 5.07449,-1.99171 1.93901,0.88755 2.81207,3.11321 2.05919,4.93262 -0.75254,1.81859 -2.94126,2.77719 -4.93807,2.04336 z m 4.17186,-9.68822 c -1.91145,-0.94526 -2.7076,-3.26383 -1.65838,-5.20243 1.04889,-1.93801 3.42811,-2.54155 5.26949,-1.45449 1.84163,1.08719 2.47931,3.40004 1.53285,5.13991 -0.94613,1.73926 -3.23275,2.46216 -5.14396,1.51701 z m 5.18299,-9.23029 c -1.80932,-1.13995 -2.36412,-3.5347 -1.12116,-5.35978 1.24271,-1.82471 3.67669,-2.18702 5.4037,-0.91727 1.72717,1.26986 2.13004,3.64304 1.0065,5.28638 -1.12328,1.64297 -3.47987,2.13052 -5.28904,0.99067 z m 6.10915,-8.68738 c -1.69058,-1.318 -2.00368,-3.76139 -0.58394,-5.45633 1.4196,-1.69477 3.8814,-1.81554 5.47709,-0.38004 1.59577,1.43556 1.76412,3.84219 0.48016,5.37204 -1.28382,1.52969 -3.68279,1.78228 -5.37331,0.46433 z m 6.95033,-8.0595 c -1.55511,-1.4794 -1.62638,-3.94391 -0.0467,-5.49205 1.57969,-1.54815 4.04209,-1.42716 5.48967,0.15717 1.44758,1.58434 1.38142,3.99747 -0.0462,5.3969 -1.42763,1.39946 -3.84164,1.4174 -5.39677,-0.062 z m 7.70653,-7.34663 c -1.4028,-1.62407 -1.23234,-4.08236 0.49051,-5.46697 1.72305,-1.38477 4.15868,-1.02196 5.44143,0.6944 1.28269,1.71627 0.98183,4.10876 -0.57253,5.36094 -1.55457,1.25235 -3.95653,1.03579 -5.35941,-0.58837 z m 8.37776,-6.54879 c -1.23357,-1.75191 -0.82164,-4.17683 1.02773,-5.38108 1.84978,-1.20451 4.23111,-0.60004 5.33239,1.23162 1.10117,1.83149 0.56527,4.17596 -1.09888,5.26417 -1.66457,1.0885 -4.02754,0.63738 -5.26124,-1.11471 z m 8.96401,-5.66597 c -1.04739,-1.8628 -0.3943,-4.22744 1.56495,-5.23437 1.95988,-1.00726 4.25936,-0.16156 5.16253,1.76884 0.90306,1.93014 0.13173,4.19892 -1.62522,5.10659 -1.7576,0.908 -4.05473,0.22199 -5.10226,-1.64106 z m 9.46528,-4.69818 c -0.84427,-1.95657 0.0497,-4.23435 2.10217,-5.02685 2.05333,-0.79284 4.24345,0.29336 4.93187,2.30606 0.68831,2.01238 -0.31877,4.17747 -2.15157,4.88819 -1.83366,0.71106 -4.03807,-0.2105 -4.88247,-2.1674 z m 9.88157,-3.6454 c -0.62428,-2.03311 0.51039,-4.1977 2.6394,-4.75853 2.13003,-0.5611 4.18347,0.76456 4.64039,2.84328 0.45684,2.0784 -0.78613,4.11145 -2.67791,4.609 -1.89284,0.49781 -3.9775,-0.66031 -4.60188,-2.69375 z m 10.2129,-2.50766 c -0.38757,-2.09224 0.98795,-4.11762 3.17662,-4.42939 2.1898,-0.31193 4.07961,1.2519 4.28809,3.38051 0.20847,2.12833 -1.27015,4.00069 -3.20425,4.26898 -1.93526,0.26844 -3.87285,-1.12755 -4.26046,-3.2201 z m 10.45923,-1.28492 c -0.13434,-2.13391 1.48259,-3.99421 3.71385,-4.03945 0.56742,-0.0115 1.12999,0.10186 1.64542,0.33203 0,0 0,0 0,0 1.42359,0.64004 2.26434,2.04841 2.22437,3.57398 -0.0398,1.52052 -0.93563,2.88932 -2.22437,3.52638 0,0 0,0 0,0 -0.47351,0.22742 -0.98384,0.34742 -1.50103,0.35349 -1.96118,0.023 -3.72389,-1.61235 -3.85824,-3.74643 z m 10.591718,-0.008 c 0.13157,-2.14031 1.967771,-3.77447 4.172007,-3.53974 2.203081,0.2346 3.650059,2.21374 3.33584,4.32015 -0.314254,2.10668 -2.202929,3.57347 -4.147578,3.3761 -1.943479,-0.19725 -3.491829,-2.01646 -3.360269,-4.15651 z m 10.461678,1.26972 c 0.385058,-2.0952 2.392801,-3.4916 4.542321,-3.00252 2.148453,0.48884 3.354471,2.61487 2.798617,4.66732 -0.55594,2.05278 -2.599869,3.28125 -4.507014,2.84975 -1.906059,-0.43126 -3.218925,-2.41968 -2.833924,-4.51455 z m 10.216358,2.49346 c 0.621556,-2.03396 2.774006,-3.19126 4.851823,-2.46529 2.07691,0.72565 3.042214,2.9726 2.261394,4.95367 -0.780946,1.98139 -2.95268,2.97295 -4.805639,2.32341 -1.852036,-0.64922 -2.929038,-2.77815 -2.307578,-4.81179 z m 9.88606,3.63224 c 0.841263,-1.9565 3.111193,-2.87357 5.100514,-1.92807 1.988616,0.94517 2.713123,3.28683 1.724171,5.17921 -0.989093,1.89266 -3.261536,2.6484 -5.043453,1.79706 -1.781199,-0.85099 -2.622379,-3.09198 -1.781232,-5.0482 z m 9.470786,4.68603 c 1.044293,-1.86265 3.404244,-2.53867 5.288393,-1.39084 1.883663,1.14754 2.367106,3.55738 1.186949,5.34393 -1.180287,1.78675 -3.526536,2.30744 -5.220456,1.27072 -1.693427,-1.03641 -2.299071,-3.36135 -1.254886,-5.22381 z m 8.970535,5.65485 c 1.230695,-1.75227 3.65311,-2.18673 5.41546,-0.85362 1.76208,1.33291 2.004136,3.78413 0.649727,5.44785 -1.354501,1.66383 -3.747703,1.9499 -5.336646,0.74438 -1.588671,-1.20532 -1.959162,-3.58645 -0.728541,-5.33861 z m 8.385306,6.53869 c 1.400463,-1.62522 3.857801,-1.81788 5.481717,-0.3164 1.623842,1.50142 1.624235,3.96693 0.112505,5.49095 -1.511762,1.52406 -3.925012,1.57564 -5.392026,0.21804 -1.466943,-1.35754 -1.60264,-3.7674 -0.202196,-5.39259 z m 7.715101,7.33755 c 1.553542,-1.48138 4.01837,-1.43224 5.487163,0.22082 1.468886,1.65317 1.227466,4.10567 -0.424717,5.47325 -1.652138,1.36754 -4.058395,1.18453 -5.386595,-0.30831 -1.328299,-1.49296 -1.229447,-3.90434 0.324149,-5.38576 z m 6.95992,8.05143 c 1.689846,-1.32064 4.1349,-1.02989 5.431797,0.75805 1.297117,1.78824 0.813925,4.20028 -0.961939,5.39473 -1.775734,1.19436 -4.147747,0.7765 -5.320352,-0.83466 -1.172836,-1.61147 -0.83949,-3.99738 0.850494,-5.31812 z m 6.11976,8.68034 c 1.809261,-1.14297 4.207511,-0.6109 5.315621,1.29527 1.108411,1.90669 0.383736,4.25071 -1.499161,5.2554 -1.882681,1.00459 -4.192936,0.35149 -5.193297,-1.361 -1.000677,-1.71302 -0.432644,-4.04656 1.376837,-5.18967 z m 5.194626,9.22427 c 1.911647,-0.94835 4.236337,-0.17527 5.138632,1.83249 0.902625,2.00851 -0.06296,4.25695 -2.036383,5.05527 -1.973136,0.79819 -4.193804,-0.0905 -5.005431,-1.88735 -0.811971,-1.7976 -0.0088,-4.05192 1.903182,-5.00041 z m 4.184513,9.68323 c 1.9968543,-0.73682 4.2215312,0.27702 4.9008323,2.36971 0.6796031,2.09363 -0.525998,4.21908 -2.5736043,4.79431 -2.047276,0.57514 -4.150178,-0.54941 -4.756754,-2.41369 -0.606888,-1.86523 0.432335,-4.0134 2.429526,-4.75033 z m 3.0894236,10.05719 c 2.0647368,-0.50847 4.1632395,0.7461 4.6022218,2.90694 0.4392009,2.16192 -1.0052445,4.13722 -3.1108256,4.47255 -2.1052644,0.33528 -4.0618918,-1.0251 -4.4472648,-2.94003 -0.385597,-1.91605 0.890803,-3.9309 2.9558686,-4.43946 z m 1.909358,10.3462 c 2.1151797,-0.2635 4.0615752,1.23213 4.2427997,3.44416 0.1813175,2.21318 -1.5005948,4.01159 -3.6480469,4.08998 -2.1472261,0.0784 -3.9288204,-1.51734 -4.0769654,-3.46638 -0.148233,-1.95021 1.3667859,-3.80423 3.4822126,-4.06776 z"
       transform="scale(-1)" />
  </g>
</svg>
